<svg width="63" height="84" viewBox="0 0 63 84" fill="none" xmlns="http://www.w3.org/2000/svg">
<path d="M63 83.6252H45.5536L29.3075 56.1328L43.5185 48.7748L63 83.6252Z" fill="#DD6B20"/>
<path d="M21.7803 26.4514L32.2075 38.4585H5.70361V26.4514H21.7803Z" fill="#DD6B20"/>
<path d="M20.5377 2.49777e-05C20.244 2.49777e-05 0.29258 1.16413 0 1.16922L13.1768 16.4009L25.7973 16.1287C34.9724 16.1287 42.41 23.0088 42.41 31.4948V31.4953C42.41 39.9819 34.9724 46.8615 25.7973 46.8615H19.6582V62.981C19.9508 62.9861 20.244 62.9901 20.5377 62.9901C41.5667 62.9901 58.6149 48.8892 58.6149 31.4953C58.6149 14.1009 41.5667 2.49777e-05 20.5377 2.49777e-05Z" fill="#DD6B20"/>
</svg>
