<svg width="391" height="206" viewBox="0 0 391 206" fill="none" xmlns="http://www.w3.org/2000/svg">
<path d="M133.224 177.846H96.3307L61.9756 119.709L92.0272 104.149L133.224 177.846Z" fill="#286742"/>
<path d="M46.058 56.9426L68.1082 82.3336H12.0612V56.9426H46.058Z" fill="#286742"/>
<path d="M43.4303 1.00671C42.8092 1.00671 0.61871 3.46841 0 3.47916L27.8646 35.6891L54.5528 35.1134C73.9549 35.1134 89.683 49.6626 89.683 67.6076V67.6088C89.683 85.5549 73.9549 100.103 54.5528 100.103H41.5706V134.191C42.1893 134.201 42.8092 134.21 43.4303 134.21C87.8998 134.21 123.951 104.391 123.951 67.6088C123.951 30.8254 87.8998 1.00671 43.4303 1.00671Z" fill="#286742"/>
<path d="M167.347 93.0026C178.175 93.0026 184.792 88.09 188.502 82.4755L181.584 75.257C179.779 79.3676 175.969 83.7789 167.448 83.7789C159.728 83.7789 154.615 79.0668 154.013 70.3444H188.903C189.103 69.3418 189.304 67.2364 189.304 65.4318C189.304 51.897 181.183 42.172 166.545 42.172C152.81 42.172 143.286 52.298 143.286 67.6374C143.286 82.8766 152.81 93.0026 167.347 93.0026ZM166.545 51.1952C173.964 51.1952 178.376 55.406 179.178 63.1258H154.113C155.016 55.2055 159.627 51.1952 166.545 51.1952ZM222.969 92L240.414 43.1746H228.182L219.961 69.7428L216.051 84.6812L212.041 69.7428L203.72 43.1746H191.288L208.632 92H222.969ZM258.059 36.2568V24.8275H246.83V36.2568H258.059ZM258.059 92V43.1746H246.83V92H258.059ZM291.592 93.0026C302.42 93.0026 309.037 88.09 312.746 82.4755L305.829 75.257C304.024 79.3676 300.214 83.7789 291.692 83.7789C283.973 83.7789 278.859 79.0668 278.258 70.3444H313.147C313.348 69.3418 313.549 67.2364 313.549 65.4318C313.549 51.897 305.428 42.172 290.79 42.172C277.055 42.172 267.53 52.298 267.53 67.6374C267.53 82.8766 277.055 93.0026 291.592 93.0026ZM290.79 51.1952C298.209 51.1952 302.62 55.406 303.423 63.1258H278.358C279.26 55.2055 283.872 51.1952 290.79 51.1952ZM342.803 92L349.62 66.6349L352.828 51.496L355.936 66.6349L362.854 92H377.191L389.723 43.1746H377.191L372.078 70.6452L369.972 84.3804L366.965 70.6452L359.445 43.1746H346.111L338.692 70.6452L335.584 84.3804L333.479 70.6452L328.466 43.1746H315.934L328.365 92H342.803Z" fill="#286742"/>
<path d="M171.759 174.011C186.697 174.011 195.219 163.083 195.72 147.944L198.828 173.209H206.047V138.419H175.368V147.944H194.718C192.311 157.268 187.299 163.383 175.969 163.383C162.735 163.383 156.219 153.759 156.219 139.522C156.219 125.586 162.635 115.761 176.671 115.761C187.499 115.761 193.916 122.378 195.921 131L205.746 123.982C201.134 111.851 190.707 105.034 176.571 105.034C155.717 105.034 144.188 119.771 144.188 139.522C144.188 160.877 154.514 174.011 171.759 174.011ZM232.69 174.211C242.415 174.211 247.428 167.594 249.233 159.874V173.209H260.562V124.383H249.233V151.754C249.233 159.774 246.425 165.088 238.204 165.088C230.685 165.088 228.68 160.977 228.68 154.962V124.383H217.451V158.371C217.451 168.497 223.266 174.211 232.69 174.211ZM290.969 174.211C301.296 174.211 309.417 169.399 309.417 159.774C309.417 152.756 305.407 148.345 294.478 145.538L288.563 144.034C281.946 142.329 279.34 141.026 279.34 137.517C279.34 134.208 282.247 132.404 286.558 132.404C292.874 132.404 298.088 135.612 301.496 141.026L308.113 134.008C305.106 128.494 297.787 123.481 287.36 123.481C276.131 123.481 268.813 128.995 268.813 138.119C268.813 147.041 275.931 150.45 283.651 152.255L290.167 153.859C295.581 155.162 299.291 156.365 299.291 159.975C299.291 163.484 296.183 165.188 291.37 165.188C282.648 165.188 276.633 160.175 273.926 155.263L267.309 162.281C271.018 170 280.543 174.211 290.969 174.211ZM329.532 173.209V145.838C329.532 137.818 332.339 132.504 340.56 132.504C348.079 132.504 350.085 136.615 350.085 142.63V173.209H361.414V139.221C361.414 129.095 355.599 123.381 346.074 123.381C336.349 123.381 331.336 129.998 329.532 137.717V106.036H318.303V173.209H329.532Z" fill="#286742"/>
</svg>
