<svg width="569" height="124" viewBox="0 0 569 124" fill="none" xmlns="http://www.w3.org/2000/svg">
<path d="M63 103.625H45.5536L29.3075 76.1328L43.5185 68.7748L63 103.625Z" fill="#DD6B20"/>
<path d="M21.7803 46.4514L32.2075 58.4585H5.70361V46.4514H21.7803Z" fill="#DD6B20"/>
<path d="M20.5377 20C20.244 20 0.29258 21.1641 0 21.1692L13.1768 36.4009L25.7973 36.1286C34.9724 36.1286 42.41 43.0088 42.41 51.4948V51.4953C42.41 59.9818 34.9724 66.8614 25.7973 66.8614H19.6582V82.981C19.9508 82.9861 20.244 82.9901 20.5377 82.9901C41.5667 82.9901 58.6149 68.8892 58.6149 51.4953C58.6149 34.1009 41.5667 20 20.5377 20Z" fill="#DD6B20"/>
<path d="M97.5708 93.0026C108.399 93.0026 115.016 88.09 118.725 82.4755L111.807 75.257C110.003 79.3676 106.193 83.7789 97.6711 83.7789C89.9512 83.7789 84.8381 79.0668 84.2366 70.3444H119.126C119.327 69.3418 119.527 67.2364 119.527 65.4318C119.527 51.897 111.406 42.172 96.7687 42.172C83.0335 42.172 73.509 52.298 73.509 67.6374C73.509 82.8766 83.0335 93.0026 97.5708 93.0026ZM96.7687 51.1952C104.188 51.1952 108.599 55.406 109.401 63.1258H84.3368C85.2391 55.2055 89.851 51.1952 96.7687 51.1952ZM153.193 92L170.637 43.1746H158.406L150.185 69.7428L146.275 84.6812L142.264 69.7428L133.943 43.1746H121.511L138.856 92H153.193ZM188.283 36.2568V24.8275H177.054V36.2568H188.283ZM188.283 92V43.1746H177.054V92H188.283ZM221.816 93.0026C232.643 93.0026 239.26 88.09 242.97 82.4755L236.052 75.257C234.248 79.3676 230.438 83.7789 221.916 83.7789C214.196 83.7789 209.083 79.0668 208.481 70.3444H243.371C243.572 69.3418 243.772 67.2364 243.772 65.4318C243.772 51.897 235.651 42.172 221.014 42.172C207.278 42.172 197.754 52.298 197.754 67.6374C197.754 82.8766 207.278 93.0026 221.816 93.0026ZM221.014 51.1952C228.433 51.1952 232.844 55.406 233.646 63.1258H208.582C209.484 55.2055 214.096 51.1952 221.014 51.1952ZM273.026 92L279.844 66.6349L283.052 51.496L286.16 66.6349L293.078 92H307.414L319.947 43.1746H307.414L302.301 70.6452L300.196 84.3804L297.188 70.6452L289.669 43.1746H276.335L268.916 70.6452L265.808 84.3804L263.702 70.6452L258.689 43.1746H246.157L258.589 92H273.026ZM373.578 92.8021C388.516 92.8021 397.038 81.874 397.54 66.7351L400.648 92H407.866V57.2107H377.187V66.7351H396.537C394.131 76.0591 389.118 82.1748 377.789 82.1748C364.555 82.1748 358.038 72.5501 358.038 58.3135C358.038 44.3777 364.455 34.5525 378.491 34.5525C389.318 34.5525 395.735 41.1695 397.74 49.7916L407.565 42.7736C402.953 30.6424 392.527 23.8249 378.39 23.8249C357.537 23.8249 346.007 38.5628 346.007 58.3135C346.007 79.6683 356.334 92.8021 373.578 92.8021ZM434.509 93.0026C444.234 93.0026 449.247 86.3856 451.052 78.6658V92H462.381V43.1746H451.052V70.5449C451.052 78.5655 448.245 83.8791 440.024 83.8791C432.504 83.8791 430.499 79.7686 430.499 73.7531V43.1746H419.27V77.1619C419.27 87.2879 425.085 93.0026 434.509 93.0026ZM492.789 93.0026C503.115 93.0026 511.236 88.1902 511.236 78.5655C511.236 71.5475 507.226 67.1361 496.298 64.3289L490.383 62.8251C483.766 61.1207 481.159 59.8174 481.159 56.3083C481.159 52.9998 484.066 51.1952 488.378 51.1952C494.694 51.1952 499.907 54.4034 503.316 59.8174L509.933 52.7993C506.925 47.2852 499.606 42.2723 489.18 42.2723C477.951 42.2723 470.632 47.7865 470.632 56.9099C470.632 65.8328 477.75 69.2416 485.47 71.0462L491.987 72.6503C497.401 73.9537 501.11 75.1567 501.11 78.766C501.11 82.275 498.002 83.9794 493.19 83.9794C484.467 83.9794 478.452 78.9665 475.745 74.0539L469.128 81.0719C472.838 88.7918 482.362 93.0026 492.789 93.0026ZM531.351 92V64.6297C531.351 56.6091 534.158 51.2955 542.379 51.2955C549.899 51.2955 551.904 55.406 551.904 61.4215V92H563.233V58.0127C563.233 47.8867 557.418 42.172 547.894 42.172C538.169 42.172 533.156 48.789 531.351 56.5089V24.8275H520.122V92H531.351Z" fill="#DD6B20"/>
</svg>
